# Blender v2.69 (sub 0) OBJ File: 'mushroom.blend'
# www.blender.org
mtllib mushroom.mtl
o mushroom_Cylinder.001
v 0.003088 0.012883 4.888812
v 0.667953 0.938175 1.888812
v 0.642886 0.903289 4.888812
v 1.084848 0.370662 1.888812
v 1.044063 0.357173 4.888812
v 1.088548 -0.333510 1.888812
v 1.047623 -0.320450 4.888812
v 0.677639 -0.905372 1.888812
v 0.652206 -0.870751 4.888812
v 0.009074 -1.126491 1.888812
v 0.008848 -1.083534 4.888812
v -0.661777 -0.912408 1.888812
v -0.636709 -0.877522 4.888812
v -1.078671 -0.344896 1.888812
v -1.037886 -0.331406 4.888812
v -1.082371 0.359276 1.888812
v -1.041446 0.346216 4.888812
v -0.671462 0.931138 1.888812
v -0.646029 0.896517 4.888812
v -0.002897 1.152258 1.888812
v -0.002671 1.109300 4.888812
v 0.878379 1.231024 4.678462
v 1.427218 0.483897 4.678462
v 1.432089 -0.443141 4.678462
v 0.891129 -1.195994 4.678462
v 0.010969 -1.487096 4.678462
v -0.872202 -1.205257 4.678462
v -1.421042 -0.458130 4.678462
v -1.425912 0.468907 4.678462
v -0.884953 1.221760 4.678462
v -0.004791 1.512863 4.678462
v 2.101995 0.707071 2.095013
v 2.109172 -0.659213 2.095013
v 1.311898 -1.768779 2.095013
v 0.014702 -2.197811 2.095013
v -1.286929 -1.782432 2.095013
v -2.095818 -0.681304 2.095013
v -2.102996 0.684979 2.095013
v -1.305721 1.794546 2.095013
v -0.008525 2.223577 2.095013
v 1.293106 1.808199 2.095013
v 2.333657 0.783690 3.142798
v 2.341627 -0.733394 3.142798
v 1.456355 -1.965427 3.142798
v 0.015984 -2.441812 3.142798
v -1.429312 -1.980586 3.142798
v -2.327480 -0.757924 3.142798
v -2.335450 0.759161 3.142798
v -1.450178 1.991193 3.142798
v -0.009807 2.467578 3.142798
v 1.435488 2.006353 3.142798
v 0.667953 0.938175 0.240785
v 1.084848 0.370662 0.240785
v 1.088548 -0.333510 0.240785
v 0.677639 -0.905372 0.240785
v 0.009074 -1.126491 0.240785
v -0.661777 -0.912408 0.240785
v -1.078671 -0.344896 0.240785
v -1.082371 0.359276 0.240785
v -0.671462 0.931138 0.240785
v -0.002897 1.152258 0.240785
v -0.340835 -1.421821 4.996576
v 0.000000 0.000000 0.000000
v 0.593221 0.825585 0.000000
v 0.965193 0.319226 0.000000
v 0.968494 -0.309067 0.000000
v 0.601863 -0.819307 0.000000
v 0.005341 -1.016599 0.000000
v -0.593221 -0.825585 0.000000
v -0.965193 -0.319226 0.000000
v -0.968494 0.309067 0.000000
v -0.601863 0.819307 0.000000
v -0.005340 1.016599 0.000000
v -0.306863 -1.280105 4.243323
vt 0.261348 0.869157
vt 0.236676 0.851000
vt 0.273308 0.636658
vt 0.812500 0.194283
vt 0.837132 0.192196
vt 0.833654 0.207073
vt 0.842643 0.212768
vt 0.847751 0.191520
vt 0.213784 0.838672
vt 0.245510 0.618501
vt 0.831201 0.178116
vt 0.839395 0.171327
vt 0.191375 0.836881
vt 0.217634 0.606173
vt 0.818127 0.170212
vt 0.820765 0.159903
vt 0.168618 0.846312
vt 0.189443 0.604382
vt 0.802903 0.171502
vt 0.798979 0.161611
vt 0.144405 0.863361
vt 0.161185 0.613813
vt 0.791346 0.181493
vt 0.782357 0.175798
vt 0.116530 0.881518
vt 0.132922 0.630862
vt 0.787868 0.196370
vt 0.777249 0.197046
vt 0.081464 0.893846
vt 0.104177 0.649019
vt 0.793799 0.210450
vt 0.785605 0.217239
vt 0.368519 0.893846
vt 0.327211 0.895637
vt 0.361549 0.661347
vt 0.806873 0.218354
vt 0.804235 0.228663
vt 0.290375 0.886207
vt 0.331352 0.663138
vt 0.822097 0.217064
vt 0.826021 0.226955
vt 0.301761 0.653707
vt 0.882129 0.243278
vt 0.897630 0.192994
vt 0.880614 0.143202
vt 0.837581 0.112922
vt 0.784968 0.113718
vt 0.742871 0.145288
vt 0.727370 0.195572
vt 0.744386 0.245364
vt 0.787419 0.275644
vt 0.840032 0.274848
vt 0.267029 0.900972
vt 0.240479 0.865743
vt 0.215243 0.841823
vt 0.190360 0.838349
vt 0.165219 0.856646
vt 0.139012 0.889727
vt 0.110353 0.924955
vt 0.364914 0.948876
vt 0.329793 0.952350
vt 0.296438 0.934053
vt 0.927933 0.278150
vt 0.955183 0.194283
vt 0.927933 0.110416
vt 0.856591 0.058583
vt 0.768408 0.058583
vt 0.697067 0.110416
vt 0.669817 0.194283
vt 0.697067 0.278150
vt 0.768408 0.329983
vt 0.856592 0.329983
vt 0.246579 0.586013
vt 0.217821 0.575014
vt 0.188659 0.573416
vt 0.159730 0.581830
vt 0.131340 0.597042
vt 0.074494 0.661347
vt 0.103052 0.613242
vt 0.361349 0.624242
vt 0.332186 0.625840
vt 0.274868 0.602213
vt 0.343083 0.456100
vt 0.056028 0.456100
vt 0.074293 0.624242
vt 0.303258 0.617426
vt 0.077859 0.948876
vn 0.805918 0.592028 0.000000
vn -0.000001 0.000000 1.000000
vn 0.387328 0.284531 0.876937
vn 0.999986 0.005254 0.000000
vn 0.000001 0.000000 1.000000
vn 0.480599 0.002525 0.876937
vn 0.812094 -0.583527 0.000000
vn 0.390294 -0.280446 0.876938
vn 0.314009 -0.949420 0.000000
vn -0.000002 0.000000 1.000000
vn 0.150914 -0.456296 0.876937
vn -0.304016 -0.952667 0.000000
vn -0.146111 -0.457856 0.876937
vn -0.805918 -0.592027 0.000000
vn 0.000000 0.000000 1.000000
vn -0.387327 -0.284531 0.876938
vn -0.999986 -0.005254 0.000000
vn -0.480597 -0.002525 0.876938
vn -0.812094 0.583527 0.000000
vn -0.390296 0.280446 0.876937
vn -0.314009 0.949420 0.000000
vn -0.150915 0.456296 0.876937
vn 0.304017 0.952667 0.000000
vn 0.000002 0.000000 1.000000
vn 0.146112 0.457856 0.876937
vn 0.693725 0.509610 0.508963
vn 0.860776 0.004522 0.508963
vn 0.699041 -0.502293 0.508963
vn 0.270295 -0.817250 0.508963
vn -0.261694 -0.820044 0.508963
vn -0.693725 -0.509610 0.508963
vn -0.860776 -0.004522 0.508963
vn -0.699041 0.502293 0.508963
vn -0.270295 0.817250 0.508963
vn 0.261694 0.820044 0.508963
vn 0.159858 0.117432 -0.980130
vn 0.198352 0.001042 -0.980130
vn 0.161083 -0.115745 -0.980130
vn 0.062285 -0.188322 -0.980130
vn -0.060303 -0.188966 -0.980130
vn -0.159858 -0.117431 -0.980130
vn -0.198352 -0.001042 -0.980130
vn -0.161083 0.115745 -0.980130
vn -0.062285 0.188322 -0.980130
vn 0.060303 0.188966 -0.980130
vn 0.786850 0.578021 -0.216238
vn 0.976327 0.005129 -0.216238
vn 0.792880 -0.569721 -0.216238
vn 0.306580 -0.926957 -0.216238
vn -0.296823 -0.930127 -0.216238
vn -0.786850 -0.578020 -0.216238
vn -0.976327 -0.005129 -0.216238
vn -0.792880 0.569721 -0.216238
vn -0.306580 0.926957 -0.216238
vn 0.296824 0.930127 -0.216238
vn 0.712982 0.523757 -0.466192
vn 0.895111 0.004703 -0.445819
vn 0.736617 -0.529294 -0.421003
vn 0.287610 -0.869603 -0.401337
vn -0.279283 -0.875162 -0.395086
vn -0.736870 -0.541304 -0.404984
vn -0.904370 -0.004751 -0.426723
vn -0.724684 0.520719 -0.451315
vn -0.277253 0.838286 -0.469476
vn 0.267526 0.838320 -0.475025
vn 0.000000 0.000000 -1.000000
vn 0.805918 0.592027 0.000000
vn 0.387330 0.284531 0.876937
vn 0.480596 0.002525 0.876938
vn 0.390297 -0.280446 0.876937
vn 0.150913 -0.456296 0.876937
vn -0.146112 -0.457856 0.876937
vn -0.387329 -0.284531 0.876937
vn -0.480598 -0.002525 0.876938
vn -0.390297 0.280446 0.876937
vn -0.150914 0.456296 0.876937
vn 0.146113 0.457856 0.876937
vn 0.860777 0.004522 0.508963
vn -0.261694 -0.820045 0.508963
vn 0.786851 0.578020 -0.216238
vn -0.296824 -0.930127 -0.216238
vn -0.786850 -0.578021 -0.216238
vn 0.296824 0.930127 -0.216239
vn 0.287610 -0.869602 -0.401338
vn -0.279283 -0.875162 -0.395084
vn -0.736870 -0.541305 -0.404983
vn -0.724684 0.520719 -0.451314
vn -0.277252 0.838285 -0.469478
vn 0.267526 0.838321 -0.475024
usemtl mushroom
s off
f 2/1/1 4/2/1 52/3/1
f 1/4/2 5/5/2 3/6/2
f 22/7/3 3/6/3 23/8/3
f 4/2/4 6/9/4 53/10/4
f 1/4/5 7/11/5 5/5/5
f 23/8/6 5/5/6 24/12/6
f 6/9/7 8/13/7 54/14/7
f 1/4/5 9/15/5 7/11/5
f 24/12/8 7/11/8 25/16/8
f 8/13/9 10/17/9 55/18/9
f 1/4/10 11/19/10 9/15/10
f 25/16/11 9/15/11 26/20/11
f 10/17/12 12/21/12 56/22/12
f 1/4/5 13/23/5 11/19/5
f 26/20/13 11/19/13 27/24/13
f 12/21/14 14/25/14 57/26/14
f 1/4/15 15/27/15 13/23/15
f 27/24/16 13/23/16 28/28/16
f 14/25/17 16/29/17 58/30/17
f 1/4/15 17/31/15 15/27/15
f 28/28/18 15/27/18 29/32/18
f 16/33/19 18/34/19 59/35/19
f 1/4/15 19/36/15 17/31/15
f 29/32/20 17/31/20 30/37/20
f 18/34/21 20/38/21 60/39/21
f 1/4/2 21/40/2 19/36/2
f 30/37/22 19/36/22 31/41/22
f 20/38/23 2/1/23 61/42/23
f 1/4/24 3/6/24 21/40/24
f 31/41/25 21/40/25 22/7/25
f 51/43/26 22/7/26 42/44/26
f 42/44/27 23/8/27 43/45/27
f 43/45/28 24/12/28 44/46/28
f 44/46/29 25/16/29 45/47/29
f 45/47/30 26/20/30 46/48/30
f 46/48/31 27/24/31 47/49/31
f 47/49/32 28/28/32 48/50/32
f 48/50/33 29/32/33 49/51/33
f 49/51/34 30/37/34 50/52/34
f 50/52/35 31/41/35 51/43/35
f 2/1/36 41/53/36 4/2/36
f 4/2/37 32/54/37 6/9/37
f 6/9/38 33/55/38 8/13/38
f 8/13/39 34/56/39 10/17/39
f 10/17/40 35/57/40 12/21/40
f 12/21/41 36/58/41 14/25/41
f 14/25/42 37/59/42 16/29/42
f 16/33/43 38/60/43 18/34/43
f 18/34/44 39/61/44 20/38/44
f 20/38/45 40/62/45 2/1/45
f 41/63/46 51/43/46 32/64/46
f 32/64/47 42/44/47 33/65/47
f 33/65/48 43/45/48 34/66/48
f 34/66/49 44/46/49 35/67/49
f 35/67/50 45/47/50 36/68/50
f 36/68/51 46/48/51 37/69/51
f 37/69/52 47/49/52 38/70/52
f 38/70/53 48/50/53 39/71/53
f 39/71/54 49/51/54 40/72/54
f 40/72/55 50/52/55 41/63/55
f 52/3/56 53/10/56 65/73/56
f 53/10/57 54/14/57 66/74/57
f 54/14/58 55/18/58 67/75/58
f 55/18/59 56/22/59 68/76/59
f 56/22/60 57/26/60 68/76/60
f 57/26/61 58/30/61 69/77/61
f 58/30/62 59/78/62 70/79/62
f 59/35/63 60/39/63 71/80/63
f 60/39/64 61/42/64 72/81/64
f 61/42/65 52/3/65 64/82/65
f 63/83/66 64/82/66 65/73/66
f 63/83/66 65/73/66 66/74/66
f 63/83/66 66/74/66 67/75/66
f 63/84/66 67/75/66 68/76/66
f 63/84/66 68/76/66 69/77/66
f 63/84/66 69/77/66 70/79/66
f 63/84/66 70/79/66 71/85/66
f 63/83/66 71/80/66 72/81/66
f 63/83/66 72/81/66 73/86/66
f 63/83/66 73/86/66 64/82/66
f 4/2/67 53/10/67 52/3/67
f 3/6/68 5/5/68 23/8/68
f 6/9/4 54/14/4 53/10/4
f 5/5/69 7/11/69 24/12/69
f 8/13/7 55/18/7 54/14/7
f 7/11/70 9/15/70 25/16/70
f 10/17/9 56/22/9 55/18/9
f 9/15/71 11/19/71 26/20/71
f 12/21/12 57/26/12 56/22/12
f 11/19/72 13/23/72 27/24/72
f 14/25/14 58/30/14 57/26/14
f 13/23/73 15/27/73 28/28/73
f 16/29/17 59/78/17 58/30/17
f 15/27/74 17/31/74 29/32/74
f 18/34/19 60/39/19 59/35/19
f 17/31/75 19/36/75 30/37/75
f 20/38/21 61/42/21 60/39/21
f 19/36/76 21/40/76 31/41/76
f 2/1/23 52/3/23 61/42/23
f 21/40/77 3/6/77 22/7/77
f 22/7/26 23/8/26 42/44/26
f 23/8/78 24/12/78 43/45/78
f 24/12/28 25/16/28 44/46/28
f 25/16/29 26/20/29 45/47/29
f 26/20/79 27/24/79 46/48/79
f 27/24/31 28/28/31 47/49/31
f 28/28/32 29/32/32 48/50/32
f 29/32/33 30/37/33 49/51/33
f 30/37/34 31/41/34 50/52/34
f 31/41/35 22/7/35 51/43/35
f 41/53/36 32/54/36 4/2/36
f 32/54/37 33/55/37 6/9/37
f 33/55/38 34/56/38 8/13/38
f 34/56/39 35/57/39 10/17/39
f 35/57/40 36/58/40 12/21/40
f 36/58/41 37/59/41 14/25/41
f 37/59/42 38/87/42 16/29/42
f 38/60/43 39/61/43 18/34/43
f 39/61/44 40/62/44 20/38/44
f 40/62/45 41/53/45 2/1/45
f 51/43/80 42/44/80 32/64/80
f 42/44/47 43/45/47 33/65/47
f 43/45/48 44/46/48 34/66/48
f 44/46/49 45/47/49 35/67/49
f 45/47/81 46/48/81 36/68/81
f 46/48/82 47/49/82 37/69/82
f 47/49/52 48/50/52 38/70/52
f 48/50/53 49/51/53 39/71/53
f 49/51/54 50/52/54 40/72/54
f 50/52/83 51/43/83 41/63/83
f 64/82/56 52/3/56 65/73/56
f 65/73/57 53/10/57 66/74/57
f 66/74/58 54/14/58 67/75/58
f 67/75/84 55/18/84 68/76/84
f 57/26/85 69/77/85 68/76/85
f 58/30/86 70/79/86 69/77/86
f 59/78/62 71/85/62 70/79/62
f 60/39/87 72/81/87 71/80/87
f 61/42/88 73/86/88 72/81/88
f 73/86/89 61/42/89 64/82/89
l 62 74
